<?xml version="1.0" encoding="UTF-8"?>
<svg id="Layer_10" data-name="Layer 10" xmlns="http://www.w3.org/2000/svg" viewBox="0 0 1920 1080">
  <defs>
    <style>
      .cls-1 {
        fill: #919191;
        opacity: .35;
        stroke-width: 0px;
      }
    </style>
  </defs>
  <path class="cls-1" d="M896,433.23c0-11.73,9.6-21.33,21.33-21.33s21.33,9.6,21.33,21.33-9.6,21.33-21.33,21.33-21.33-9.6-21.33-21.33ZM1216,422.56v149.33c0,52.91-43.09,96-96,96h-213.33c-52.91,0-96-43.09-96-96v-149.33c0-52.91,43.09-96,96-96h213.33c52.91,0,96,43.09,96,96ZM850.77,621.39l131.63-131.63c17.49-17.49,45.87-17.49,63.36,0l22.19,22.19c8.96,8.75,24.32,8.96,33.07,0l93.65-93.65c-2.13-39.25-34.77-70.4-74.45-70.4h-213.55c-41.17,0-74.67,33.49-74.67,74.67v149.33c0,18.99,7.04,36.27,18.77,49.49ZM1194.67,571.89v-123.52l-78.72,78.72c-16.85,16.85-46.51,16.85-63.36,0l-22.19-22.19c-9.17-9.17-24.11-9.17-33.07,0l-130.35,130.35c11.52,7.25,25.17,11.52,39.68,11.52h213.33c41.17,0,74.67-33.49,74.67-74.67v-.21ZM1062.61,713.12c-13.65,11.95-31.15,18.77-49.28,18.77h-213.33c-41.17,0-74.67-33.49-74.67-74.67v-149.33c0-26.67,14.29-51.41,37.33-64.64,5.12-2.99,6.83-9.39,3.84-14.51-2.99-5.12-9.39-6.83-14.51-3.84-29.65,17.07-48,49.07-48,83.2v149.33c0,52.91,43.09,96,96,96h213.33c23.47,0,45.87-8.53,63.57-23.89,4.48-3.84,4.91-10.67.85-15.15-4.05-4.48-10.67-4.91-15.15-.85v-.43Z"/>
</svg>